# xmcd CD database file
#
# Track frame offsets:
#	150
#	16430
#	28680
#	46513
#	65003
#	84310
#	101485
#	120405
#	137793
#	148625
#	164168
#	181658
#	196438
#	211890
#
# Disc length: 3015 seconds
#
# Revision: 0
# Processed by: cddbd v1.5.1PL2 Copyright (c) Steve Scherf et al.
# Submitted via: CDex 1.51
#
DISCID=bd0bc50e
DTITLE=Various Artist - Together [おやすみ]
DYEAR=1993
DGENRE=フォーク
TTITLE0=イルカ/なごり雪
TTITLE1=かぐや姫/僕の胸でおやすみ
TTITLE2=風/ささやかなこの人生
TTITLE3=大貫妙子/いつでもそばに
TTITLE4=南こうせつ/夢一夜
TTITLE5=イルカ/海岸通
TTITLE6=かぐや姫/妹
TTITLE7=風/海風
TTITLE8=細野晴臣/東京Shyness Boy
TTITLE9=かぐや姫/星降る夜
TTITLE10=風/あの唄はもう唄わないのですか
TTITLE11=かぐや姫/雪が降る日に
TTITLE12=イルカ/雨の物語
TTITLE13=風/22才の別れ
EXTD=YEAR: 1993
EXTT0=
EXTT1=
EXTT2=
EXTT3=
EXTT4=
EXTT5=
EXTT6=
EXTT7=
EXTT8=
EXTT9=
EXTT10=
EXTT11=
EXTT12=
EXTT13=
PLAYORDER=
